# xmcd
#
# Track frame offsets: 
#        150
#        20018
#        33097
#        50224
#        61428
#        71183
#        87601
#        102169
#        117078
#        129485
#        149866
#
# Disc length: 2279 seconds
#
# Revision: 0
# Processed by: cddbd v1.5.2PL0 Copyright (c) Steve Scherf et al.
# Submitted via: ExactAudioCopy v1.0b3
#
DISCID=aa08e50b
DTITLE=Glen Campbell - Live Cowbody
DYEAR=2005
DGENRE=Country
TTITLE0=Medley: Wichita Linesman-Galveston-Country Boy
TTITLE1=Rhinestone Cowboy
TTITLE2=Southern Nights
TTITLE3=It's Only Make Believe
TTITLE4=Gentle on my Mind
TTITLE5=Please Come to Boston
TTITLE6=Crying
TTITLE7=I'm So Lonesome I could Cry
TTITLE8=By the Time I get to Phoenix
TTITLE9=Amazing Grace
TTITLE10=Mull of Kintyre
EXTD=
EXTT0=
EXTT1=
EXTT2=
EXTT3=
EXTT4=
EXTT5=
EXTT6=
EXTT7=
EXTT8=
EXTT9=
EXTT10=
PLAYORDER=
